<?xml version="1.0" standalone="no"?><!DOCTYPE svg PUBLIC "-//W3C//DTD SVG 1.1//EN" "http://www.w3.org/Graphics/SVG/1.1/DTD/svg11.dtd"><svg t="1661342478990" class="icon" viewBox="0 0 1024 1024" version="1.1" xmlns="http://www.w3.org/2000/svg" p-id="906" xmlns:xlink="http://www.w3.org/1999/xlink" width="200" height="200"><defs><style type="text/css">@font-face { font-family: feedback-iconfont; src: url("//at.alicdn.com/t/font_1031158_u69w8yhxdu.woff2?t=1630033759944") format("woff2"), url("//at.alicdn.com/t/font_1031158_u69w8yhxdu.woff?t=1630033759944") format("woff"), url("//at.alicdn.com/t/font_1031158_u69w8yhxdu.ttf?t=1630033759944") format("truetype"); }
</style></defs><path d="M568.8 851.4c-80.3 0-156-21.9-213-61.5-58-40.4-89.9-94.4-89.9-152 0-20.6 4.1-41 12.3-60.6 0.1-0.3 0.3-0.7 0.5-1 2.2-4 4.2-8.3 6-12.7 6.4-15.9 9.7-34.1 9.7-52.8 0-36.6-12.8-70-33.4-87.9h-0.2c-0.5 0-1 0.1-1.4 0.3l-39.2 18.7c-4 1.9-8.2 3-12.6 3.2-1.1 0.1-2.3 0.1-3.6 0h-0.1c-7.4-0.5-14.5-3.3-20-8.1-2-1.7-3.8-3.7-5.3-5.8-0.5-0.5-0.9-1-1.2-1.6-0.5-0.8-0.9-1.6-1.5-2.6-2.3-4.6-3.4-9.4-3.4-14.4 0-12.4 7.3-24 18.7-29.4l13.4-6.4c0.3-0.1 0.6-0.3 0.9-0.4 1.5-0.5 3-1.2 4.4-2.1l0.1-0.1c0.7-0.5 1.5-0.9 2.2-1.4 9.4-5.7 14.4-9.1 14.3-18.8-2.1-10-3.2-20.2-3.2-30.4 0-8.5 0.8-17 2.2-25.3 6.2-35.1 25.5-67.3 54.3-90.5 29-23.4 66-36.3 104.2-36.3 18.3 0 36.2 2.9 53.3 8.6 0.6 0.2 1.2 0.5 1.8 0.8 28.6 15.9 49.6 35.5 62.3 58.4 12.7 22.9 16.9 48.4 12.4 75.9-1.4 8.3-3.8 16.6-6.1 24.5-1.4 4.6-2.6 9-3.6 13.1-0.3 1.2-0.6 2.3-0.9 3l-26.3 74.6v0.1L464 465.3c-0.2 0.4-13.4 37 7.1 66.6 19.2 27.6 61.1 41.7 124.5 41.7 23 0 43.3-1.9 60.3-5.6 0.9-0.2 1.7-0.3 2.6-0.4 96.9-5.6 113.9-44.8 133.6-90.2 1.9-4.5 3.9-9.1 6-13.7 2.3-5 4.4-9.4 6.5-13.5 0.6-1.1 1.3-2.1 2-3l0.1-0.1c3.5-4.1 8.8-6.4 14.3-6.1 5.4 0.3 10.2 3.1 13.1 7.6 1.1 1.7 2.1 3.6 3 5.4 0.5 1 0.8 2 1.1 3 1.2 4.9 2.3 9.7 3.3 14.3 5.5 26.2 8.3 53.8 8.3 81.8 0 63-14.3 123.2-40.3 169.6-0.1 0.1-0.1 0.1-0.1 0.2s0 0.1-0.1 0.1c-19.5 41.4-54.2 77.3-100.4 103.8-0.9 0.5-1.9 1-2.8 1.3-42.7 15.5-88.9 23.3-137.3 23.3zM294.7 584.5c-7.2 17.3-10.8 35.2-10.8 53.3 0 107.8 127.8 195.6 284.9 195.6 46.3 0 90.5-7.4 131.3-22.1 42.9-24.7 75.1-57.8 93-95.8 0.2-0.5 0.5-1 0.8-1.6 24.5-43.7 38-100.8 38-160.8 0-26.8-2.7-53.1-7.9-78.1-0.9-4.4-2-8.9-3.1-13.5l-0.9-1.8c-1.8 3.4-3.6 7.2-5.5 11.4-2 4.4-4 9-5.9 13.4-20.2 46.6-41.1 94.7-149 101-18.3 4-39.9 6-64.1 6-69.8 0-116.7-16.7-139.4-49.6-25.9-37.5-9.8-81.1-9.1-83l12.7-34.4 26.3-74.6c0.2-0.5 0.3-0.8 0.3-1v-0.2c1.1-4.6 2.5-9.4 3.9-14 2.2-7.4 4.4-15.1 5.6-22.4 7.8-47.4-14.7-87.2-65.2-115.3-15-4.9-30.8-7.4-46.8-7.4-70.1 0-129.3 47.1-140.7 111.9-1.3 7.3-2 14.7-2 22.2 0 9.2 1 18.4 3 27.4 0.1 0.6 0.2 1.2 0.2 1.7 0.7 21.2-13.6 29.8-23 35.5-0.8 0.5-1.5 0.9-2.3 1.4-0.1 0.1-0.2 0.1-0.3 0.2-2.3 1.4-4.7 2.5-7.1 3.4l-13 6.2c-5.1 2.4-8.4 7.6-8.4 13.2 0 2.2 0.5 4.3 1.5 6.3 0 0.1 0.1 0.1 0.1 0.2 0.3 0.3 0.5 0.6 0.7 1 0.8 1.2 1.7 2.3 2.8 3.3 2.6 2.2 5.9 3.5 9.3 3.8h1.7c2-0.1 4-0.6 5.8-1.5l39.2-18.7c2.9-1.4 6.1-2.1 9.3-2.1 2.3 0 4.6 0.3 6.8 1 1.2 0.4 2.2 1 3.2 1.8 0.1 0.1 0.3 0.2 0.4 0.4 25.4 20.9 41.1 60.2 41.1 102.7 0 20.9-3.8 41.5-11 59.5-1.6 4.8-3.9 9.6-6.4 14.1z m506.7 134.8z" fill="#e98f36" p-id="907"></path><path d="M629 684.8c-1.3-0.4-1.2-2.2 0.1-2.5 18.2-4.8 30.2-12.1 30.2-19.8 0-14.4-40-26-89.4-26-37 0-68.4 10.5-82 19.8-0.1 0.1-0.2 0.1-0.3 0.2-23.3 11.6-38.8 32.1-38.8 48.9 0 27.5 31.6 52 74 63.3 0.1 0 0.2 0 0.3 0.1 13.6 2.5 29.6 4 46.8 4 49.4 0 89.4-12 89.4-26.8 0-8.8-14-16.6-35.8-21.4h-0.1c-3-0.7-3.1-4.9-0.1-5.7 0.9-0.2 1.7-0.5 2.6-0.7 15.4-4.6 24.8-10.6 24.8-17.2-0.1-6.3-8.5-11.8-21.7-16.2z" fill="#e98f36" p-id="908"></path><path d="M569.9 781.7c-17.2 0-33.9-1.4-48.5-4.1-0.3-0.1-0.6-0.1-0.9-0.2-49.1-13.1-80.7-41.4-80.7-72.1 0-20.6 17.8-43.9 43.4-56.8 15.7-10.6 48.4-21.1 86.7-21.1 36.5 0 98.4 7.4 98.4 35 0 8.7-6.4 16.1-18.7 22 5.5 3.9 10.1 9.2 10.1 16.3 0 7.9-5.5 14.7-16.4 20.2 16.4 6.3 25 14.8 25 25 0 11.8-11 21.1-32.6 27.6-17.7 5.3-41.1 8.2-65.8 8.2z m-45-21.8c13.4 2.5 29 3.8 45 3.8 21.7 0 42.4-2.4 58.2-6.8 16.5-4.6 21.5-9.6 22.2-11-0.8-1.7-7.2-7.8-28.7-12.7h-0.1c-5.4-1.2-9.2-5.9-9.3-11.3-0.1-5.5 3.5-10.4 8.8-11.8 0.8-0.2 1.6-0.5 2.4-0.7 12.4-3.7 16.6-7.1 18-8.5-1.5-1.5-5.7-4.4-15.1-7.5-4.4-1.5-7.2-5.5-7.1-10.1 0.1-4.6 3.2-8.5 7.7-9.7 16.5-4.4 22.3-9.4 23.4-11.1-1.1-1.8-6.8-6.4-22.6-10.6-15.7-4.1-36.2-6.4-57.7-6.4-37 0-66.3 10.9-76.9 18.2-0.4 0.3-0.9 0.6-1.3 0.8-22 11-33.8 29.2-33.8 40.9-0.2 21.8 26.8 43.7 66.9 54.5z m-0.2 0z m107.1-83.7z m-149-27.4z" fill="#e98f36" p-id="909"></path><path d="M330.7 316.9a12.9 13.6 0 1 0 25.8 0 12.9 13.6 0 1 0-25.8 0Z" fill="#e98f36" p-id="910"></path></svg>